<svg width="208" height="135" viewBox="0 0 208 135" fill="none" xmlns="http://www.w3.org/2000/svg">
<rect width="20" height="145.803" transform="matrix(-0.713455 -0.700701 -0.700701 0.713455 166.624 29.3181)" fill="white"/>
<rect width="18.7554" height="57.0813" transform="matrix(0.717099 -0.696972 -0.696972 -0.717099 191.2 81.3449)" fill="white"/>
<rect width="20" height="73.3421" transform="matrix(-0.713455 -0.700701 -0.700701 0.713455 72.528 25.627)" fill="white"/>
<path d="M61.5475 132.139C62.7156 133.314 64.615 133.32 65.7901 132.152L77.8468 120.167L16.4815 58.4335C15.3134 57.2584 13.4139 57.2527 12.2388 58.4208L2.3098 68.2906C1.13473 69.4587 1.12905 71.3582 2.29711 72.5332L61.5475 132.139Z" fill="white"/>
<path d="M95.1342 51.8438C96.346 52.9737 98.2443 52.9073 99.3742 51.6955L108.922 41.4562C110.052 40.2444 109.985 38.3461 108.774 37.2161L71.2656 2.24239C70.0538 1.11246 68.1555 1.17884 67.0256 2.39063L55.4321 14.8241L95.1342 51.8438Z" fill="white"/>
<path d="M204.779 72.5738C205.94 71.3917 205.923 69.4923 204.741 68.3313L192.612 56.4194L143.323 106.605C142.162 107.787 142.179 109.687 143.361 110.848L153.35 120.658C154.532 121.819 156.431 121.801 157.592 120.619L204.779 72.5738Z" fill="white"/>
</svg>
